<?xml version="1.0" encoding="UTF-8"?>
<svg version="1.1" xmlns="http://www.w3.org/2000/svg" width="512" height="512">
<path d="M0 0 C1.14082031 0.36222656 2.28164062 0.72445312 3.45703125 1.09765625 C27.47671747 9.50312177 46.34015381 28.04604789 57.75390625 50.44140625 C69.15121277 75.54975822 70.00776869 102.83564071 60.6953125 128.66796875 C51.30242624 153.38523518 32.54124268 171.75089007 9.01171875 183.09960938 C-15.26194929 193.96384332 -42.50169667 193.37916747 -67.24609375 184.5625 C-93.71546879 173.971963 -112.02133119 153.19366265 -123.15625 127.3125 C-132.34254877 102.81570329 -130.46221397 75.21561821 -119.77441406 51.6081543 C-113.48475815 38.33459436 -104.65416089 26.054556 -93 17 C-92.28714844 16.43925781 -91.57429688 15.87851563 -90.83984375 15.30078125 C-65.06724423 -3.84580771 -30.65273765 -10.1071189 0 0 Z " fill="#FFFFFF" transform="translate(206,68)"/>
<path d="M0 0 C13.33730309 11.02614588 23.3118291 25.21096274 26.25 42.625 C26.54790151 46.56660265 26.57488712 50.48600963 26.5625 54.4375 C26.58666992 55.96213867 26.58666992 55.96213867 26.61132812 57.51757812 C26.62304988 75.9090164 18.62770785 91.20302196 6.40234375 104.53125 C-7.45842249 118.01468141 -25.75819454 123.84303001 -44.75 123.625 C-63.87231538 122.50851662 -80.79385744 114.08042225 -93.76171875 100.15234375 C-101.50983032 91.33130368 -105.98331129 80.98874403 -108.75 69.625 C-109.03617187 68.47644531 -109.03617187 68.47644531 -109.328125 67.3046875 C-112.25392754 48.72042321 -108.35936046 30.14329814 -97.75 14.625 C-86.80642028 0.04469463 -71.45673435 -9.57342058 -53.4765625 -12.90234375 C-34.20705078 -15.34638035 -15.82167248 -11.83256255 0 0 Z " fill="#FFFFFF" transform="translate(407.75,212.375)"/>
<path d="M0 0 C13.75549689 10.86879751 22.04543312 25.40906031 24.34521484 42.79541016 C25.76007975 61.11907045 20.46828965 77.2634918 8.66552734 91.37744141 C1.13328856 99.22669361 -7.44518809 104.24750033 -17.65478516 107.79541016 C-18.78916016 108.20791016 -19.92353516 108.62041016 -21.09228516 109.04541016 C-37.34842585 112.46775557 -53.82013184 110.55806919 -68.33447266 102.26416016 C-84.62180946 91.50741436 -93.48828145 77.10017808 -97.40478516 58.17041016 C-98.78924347 39.48022287 -94.26757572 22.29326113 -82.02978516 7.85791016 C-60.49211065 -14.07616326 -25.35140584 -18.4543872 0 0 Z " fill="#FFFFFF" transform="translate(248.65478515625,338.20458984375)"/>
<path d="M0 0 C5.44558109 3.23819449 9.33522474 7.4349599 11.85546875 13.27734375 C13.03393425 20.4659833 12.74452982 26.71541843 8.85546875 33.02734375 C5.42334316 37.63926252 1.8921102 39.76920835 -3.45703125 41.83984375 C-10.10702061 42.64590307 -15.57433967 42.30484005 -21.51953125 39.08984375 C-24.33203125 36.65234375 -24.33203125 36.65234375 -26.51953125 34.08984375 C-27.07640625 33.47109375 -27.63328125 32.85234375 -28.20703125 32.21484375 C-31.50375253 26.87729501 -31.91054528 21.65774047 -31.125 15.5859375 C-29.39986024 8.47390971 -24.88334215 3.79875571 -18.7890625 0.015625 C-13.2152301 -2.25803813 -5.61653282 -2.02891806 0 0 Z " fill="#FFFFFF" transform="translate(336.51953125,360.91015625)"/>
<path d="M0 0 C8.22686255 7.624897 8.22686255 7.624897 8.765625 13.64453125 C8.86429435 18.99734344 8.74668241 22.85551528 5.5625 27.375 C0.78546678 32.17461967 -2.76971074 34.50392738 -9.6875 34.6875 C-15.20980167 34.62914014 -18.03907417 33.69626032 -22.4375 30.375 C-26.29232188 26.41599374 -28.39030539 22.58947763 -28.47265625 16.98046875 C-28.04293031 9.98956134 -26.15917206 5.83114308 -20.875 1.0625 C-14.92767706 -3.05487742 -6.40877413 -3.02960232 0 0 Z " fill="#FFFFFF" transform="translate(372.4375,111.625)"/>
<path d="M0 0 C3.5677811 2.35149209 5.84221079 4.99692157 7.75 8.8125 C8.26592086 13.98862405 8.34738983 18.44348164 6.25 23.25 C2.5323469 27.06059443 -1.12760129 29.59588689 -6.55859375 29.97265625 C-12.75357844 29.54433522 -16.91109533 27.38529514 -21.125 22.75 C-22.89514485 18.12795511 -22.9021815 13.69311099 -22.25 8.8125 C-17.69705854 -0.29338292 -9.57576679 -3.49883787 0 0 Z " fill="#FFFFFF" transform="translate(257.25,267.1875)"/>
</svg>
